# xmcd
#
# Track frame offsets: 
#        150
#        20251
#        55169
#        88336
#        115758
#        151050
#        230788
#        278678
#        307217
#        329522
#
# Disc length: 4733 seconds
#
# Revision: 0
# Processed by: cddbd v1.5.2PL0 Copyright (c) Steve Scherf et al.
# Submitted via: ExactAudioCopyFreeDBPlugin 1.0
#
DISCID=85127b0a
DTITLE=Eric Clapton - Blues Night CD2
DYEAR=1990
DGENRE=Blues
TTITLE0=Money
TTITLE1=Five Long Years
TTITLE2=Somethong On Your Mind
TTITLE3=Everythong's Going To Be Alright
TTITLE4=Sweet Home Chicago
TTITLE5=My Time After A While
TTITLE6=Wee Wee Baby
TTITLE7=No Alibis
TTITLE8=Pretending
TTITLE9=Running On Faith
EXTD=
EXTT0=
EXTT1=
EXTT2=
EXTT3=
EXTT4=
EXTT5=
EXTT6=
EXTT7=
EXTT8=
EXTT9=
PLAYORDER=
